<svg xmlns="http://www.w3.org/2000/svg" xmlns:xlink="http://www.w3.org/1999/xlink" width="500" zoomAndPan="magnify" viewBox="0 0 375 374.999991" height="500" preserveAspectRatio="xMidYMid meet" version="1.0"><defs><clipPath id="id1"><path d="M 36.429688 60 L 338.679688 60 L 338.679688 353.328125 L 36.429688 353.328125 Z M 36.429688 60 " clip-rule="nonzero"/></clipPath><clipPath id="id2"><path d="M 178 6.828125 L 197 6.828125 L 197 96 L 178 96 Z M 178 6.828125 " clip-rule="nonzero"/></clipPath></defs><rect x="-37.5" width="450" fill="#ffffff" y="-37.499999" height="449.999989" fill-opacity="1"/><rect x="-37.5" width="450" fill="#ffffff" y="-37.499999" height="449.999989" fill-opacity="1"/><rect x="-37.5" width="450" fill="#ffffff" y="-37.499999" height="449.999989" fill-opacity="1"/><rect x="-37.5" width="450" fill="#ffffff" y="-37.499999" height="449.999989" fill-opacity="1"/><g clip-path="url(#id1)"><path fill="#000000" d="M 303 60.136719 C 301.835938 60.136719 300.675781 60.191406 299.515625 60.304688 C 298.359375 60.421875 297.210938 60.589844 296.070312 60.816406 C 294.925781 61.042969 293.800781 61.328125 292.6875 61.664062 C 291.574219 62.003906 290.480469 62.394531 289.40625 62.839844 C 288.332031 63.285156 287.28125 63.78125 286.253906 64.332031 C 285.226562 64.878906 284.230469 65.476562 283.265625 66.125 C 282.296875 66.769531 281.363281 67.464844 280.464844 68.203125 C 279.566406 68.941406 278.703125 69.722656 277.882812 70.542969 C 277.058594 71.367188 276.277344 72.226562 275.539062 73.128906 C 274.800781 74.027344 274.109375 74.960938 273.464844 75.929688 C 272.816406 76.898438 272.21875 77.894531 271.671875 78.921875 C 271.125 79.945312 270.625 80.996094 270.179688 82.074219 C 269.734375 83.148438 269.34375 84.242188 269.007812 85.355469 C 268.667969 86.472656 268.386719 87.597656 268.160156 88.738281 C 267.933594 89.882812 267.761719 91.03125 267.648438 92.191406 C 267.535156 93.347656 267.476562 94.507812 267.476562 95.671875 L 285.238281 95.671875 C 285.238281 95.089844 285.265625 94.511719 285.324219 93.933594 C 285.378906 93.351562 285.464844 92.777344 285.578125 92.207031 C 285.691406 91.636719 285.832031 91.070312 286.003906 90.515625 C 286.171875 89.957031 286.367188 89.410156 286.589844 88.875 C 286.8125 88.335938 287.0625 87.808594 287.335938 87.296875 C 287.609375 86.785156 287.90625 86.285156 288.230469 85.800781 C 288.554688 85.316406 288.902344 84.851562 289.269531 84.402344 C 289.636719 83.949219 290.027344 83.519531 290.441406 83.109375 C 290.851562 82.695312 291.28125 82.308594 291.730469 81.9375 C 292.179688 81.566406 292.648438 81.222656 293.132812 80.898438 C 293.613281 80.574219 294.113281 80.277344 294.625 80.003906 C 295.140625 79.726562 295.664062 79.480469 296.203125 79.257812 C 296.738281 79.035156 297.285156 78.839844 297.84375 78.667969 C 298.398438 78.5 298.964844 78.359375 299.535156 78.246094 C 300.105469 78.132812 300.679688 78.046875 301.257812 77.988281 C 301.835938 77.933594 302.417969 77.902344 303 77.902344 C 303.582031 77.902344 304.160156 77.933594 304.738281 77.988281 C 305.316406 78.046875 305.894531 78.132812 306.464844 78.246094 C 307.035156 78.359375 307.597656 78.5 308.152344 78.667969 C 308.710938 78.839844 309.257812 79.035156 309.796875 79.257812 C 310.332031 79.480469 310.859375 79.726562 311.371094 80.003906 C 311.882812 80.277344 312.382812 80.574219 312.867188 80.898438 C 313.347656 81.222656 313.816406 81.566406 314.265625 81.9375 C 314.714844 82.308594 315.144531 82.695312 315.558594 83.109375 C 315.96875 83.519531 316.359375 83.949219 316.726562 84.402344 C 317.097656 84.851562 317.441406 85.316406 317.765625 85.800781 C 318.089844 86.285156 318.386719 86.785156 318.660156 87.296875 C 318.9375 87.808594 319.183594 88.335938 319.40625 88.875 C 319.628906 89.410156 319.824219 89.957031 319.996094 90.515625 C 320.164062 91.070312 320.304688 91.636719 320.417969 92.207031 C 320.53125 92.777344 320.617188 93.351562 320.671875 93.933594 C 320.730469 94.511719 320.757812 95.089844 320.757812 95.671875 C 320.757812 96.253906 320.730469 96.835938 320.671875 97.414062 C 320.617188 97.996094 320.53125 98.570312 320.417969 99.140625 C 320.304688 99.710938 320.164062 100.273438 319.996094 100.832031 C 319.824219 101.386719 319.628906 101.9375 319.40625 102.472656 C 319.183594 103.011719 318.9375 103.535156 318.660156 104.050781 C 318.386719 104.5625 318.089844 105.0625 317.765625 105.546875 C 317.441406 106.027344 317.097656 106.496094 316.726562 106.945312 C 316.359375 107.394531 315.96875 107.828125 315.558594 108.238281 C 315.144531 108.648438 314.714844 109.039062 314.265625 109.410156 C 313.816406 109.777344 313.347656 110.125 312.867188 110.449219 C 312.382812 110.769531 311.882812 111.070312 311.371094 111.34375 C 310.859375 111.617188 310.332031 111.867188 309.796875 112.089844 C 309.257812 112.3125 308.710938 112.507812 308.152344 112.675781 C 307.597656 112.847656 307.035156 112.988281 306.464844 113.101562 C 305.894531 113.214844 305.316406 113.300781 304.738281 113.355469 C 304.160156 113.414062 303.582031 113.441406 303 113.441406 L 72.113281 113.441406 C 71.53125 113.441406 70.949219 113.414062 70.371094 113.355469 C 69.792969 113.300781 69.21875 113.214844 68.648438 113.101562 C 68.078125 112.988281 67.511719 112.847656 66.957031 112.675781 C 66.398438 112.507812 65.851562 112.3125 65.316406 112.089844 C 64.777344 111.867188 64.253906 111.617188 63.738281 111.34375 C 63.226562 111.070312 62.730469 110.769531 62.246094 110.449219 C 61.761719 110.125 61.292969 109.777344 60.84375 109.410156 C 60.394531 109.039062 59.964844 108.648438 59.554688 108.238281 C 59.140625 107.828125 58.753906 107.394531 58.382812 106.945312 C 58.015625 106.496094 57.667969 106.027344 57.34375 105.546875 C 57.023438 105.0625 56.722656 104.5625 56.449219 104.050781 C 56.175781 103.535156 55.925781 103.011719 55.703125 102.472656 C 55.480469 101.9375 55.285156 101.386719 55.117188 100.832031 C 54.949219 100.273438 54.804688 99.710938 54.691406 99.140625 C 54.578125 98.570312 54.496094 97.996094 54.4375 97.414062 C 54.378906 96.835938 54.351562 96.253906 54.351562 95.671875 C 54.351562 95.089844 54.378906 94.511719 54.4375 93.933594 C 54.496094 93.351562 54.578125 92.777344 54.691406 92.207031 C 54.804688 91.636719 54.949219 91.070312 55.117188 90.515625 C 55.285156 89.957031 55.480469 89.410156 55.703125 88.875 C 55.925781 88.335938 56.175781 87.808594 56.449219 87.296875 C 56.722656 86.785156 57.023438 86.285156 57.34375 85.800781 C 57.667969 85.316406 58.015625 84.851562 58.382812 84.402344 C 58.753906 83.949219 59.140625 83.519531 59.554688 83.109375 C 59.964844 82.695312 60.394531 82.308594 60.84375 81.9375 C 61.292969 81.566406 61.761719 81.222656 62.246094 80.898438 C 62.730469 80.574219 63.226562 80.277344 63.738281 80.003906 C 64.253906 79.726562 64.777344 79.480469 65.316406 79.257812 C 65.851562 79.035156 66.398438 78.839844 66.957031 78.667969 C 67.511719 78.5 68.078125 78.359375 68.648438 78.246094 C 69.21875 78.132812 69.792969 78.046875 70.371094 77.988281 C 70.949219 77.933594 71.53125 77.902344 72.113281 77.902344 C 72.695312 77.902344 73.273438 77.933594 73.851562 77.988281 C 74.433594 78.046875 75.007812 78.132812 75.578125 78.246094 C 76.148438 78.359375 76.710938 78.5 77.269531 78.667969 C 77.824219 78.839844 78.371094 79.035156 78.910156 79.257812 C 79.445312 79.480469 79.972656 79.726562 80.484375 80.003906 C 80.996094 80.277344 81.496094 80.574219 81.980469 80.898438 C 82.464844 81.222656 82.929688 81.566406 83.378906 81.9375 C 83.828125 82.308594 84.257812 82.695312 84.671875 83.109375 C 85.082031 83.519531 85.472656 83.949219 85.839844 84.402344 C 86.210938 84.851562 86.554688 85.316406 86.878906 85.800781 C 87.203125 86.285156 87.5 86.785156 87.777344 87.296875 C 88.050781 87.808594 88.296875 88.335938 88.519531 88.875 C 88.742188 89.410156 88.9375 89.957031 89.109375 90.515625 C 89.277344 91.070312 89.417969 91.636719 89.53125 92.207031 C 89.644531 92.777344 89.730469 93.351562 89.789062 93.933594 C 89.84375 94.511719 89.871094 95.089844 89.871094 95.671875 L 107.632812 95.671875 C 107.632812 94.507812 107.574219 93.347656 107.460938 92.191406 C 107.347656 91.03125 107.175781 89.882812 106.949219 88.738281 C 106.722656 87.597656 106.441406 86.472656 106.105469 85.355469 C 105.765625 84.242188 105.375 83.148438 104.929688 82.074219 C 104.484375 80.996094 103.988281 79.945312 103.4375 78.921875 C 102.890625 77.894531 102.292969 76.898438 101.648438 75.929688 C 101 74.960938 100.308594 74.027344 99.570312 73.128906 C 98.832031 72.226562 98.050781 71.367188 97.230469 70.542969 C 96.40625 69.722656 95.546875 68.941406 94.644531 68.203125 C 93.746094 67.464844 92.8125 66.769531 91.847656 66.125 C 90.878906 65.476562 89.882812 64.878906 88.855469 64.332031 C 87.832031 63.78125 86.78125 63.285156 85.707031 62.839844 C 84.628906 62.394531 83.535156 62.003906 82.421875 61.664062 C 81.308594 61.328125 80.183594 61.042969 79.042969 60.816406 C 77.902344 60.589844 76.75 60.421875 75.59375 60.304688 C 74.4375 60.191406 73.277344 60.136719 72.113281 60.136719 C 70.949219 60.136719 69.789062 60.191406 68.628906 60.304688 C 67.472656 60.421875 66.324219 60.589844 65.183594 60.816406 C 64.042969 61.042969 62.914062 61.328125 61.800781 61.664062 C 60.6875 62.003906 59.59375 62.394531 58.519531 62.839844 C 57.445312 63.285156 56.394531 63.78125 55.367188 64.332031 C 54.339844 64.878906 53.34375 65.476562 52.378906 66.125 C 51.410156 66.769531 50.476562 67.464844 49.578125 68.203125 C 48.679688 68.941406 47.816406 69.722656 46.996094 70.542969 C 46.171875 71.367188 45.390625 72.226562 44.652344 73.128906 C 43.917969 74.027344 43.222656 74.960938 42.578125 75.929688 C 41.929688 76.898438 41.332031 77.894531 40.785156 78.921875 C 40.238281 79.945312 39.742188 80.996094 39.296875 82.074219 C 38.851562 83.148438 38.457031 84.242188 38.121094 85.355469 C 37.78125 86.472656 37.5 87.597656 37.273438 88.738281 C 37.046875 89.882812 36.875 91.03125 36.761719 92.191406 C 36.648438 93.347656 36.589844 94.507812 36.589844 95.671875 C 36.589844 96.835938 36.648438 98 36.761719 99.15625 C 36.875 100.316406 37.046875 101.464844 37.273438 102.605469 C 37.5 103.75 37.78125 104.875 38.121094 105.988281 C 38.457031 107.101562 38.851562 108.199219 39.296875 109.273438 C 39.742188 110.347656 40.238281 111.398438 40.785156 112.425781 C 41.332031 113.453125 41.929688 114.449219 42.578125 115.417969 C 43.222656 116.386719 43.917969 117.320312 44.652344 118.21875 C 45.390625 119.117188 46.171875 119.980469 46.996094 120.804688 C 47.816406 121.625 48.679688 122.40625 49.578125 123.144531 C 50.476562 123.882812 51.410156 124.574219 52.378906 125.222656 C 53.34375 125.867188 54.339844 126.464844 55.367188 127.015625 C 56.394531 127.5625 57.445312 128.0625 58.519531 128.507812 C 59.59375 128.953125 60.6875 129.34375 61.800781 129.679688 C 62.914062 130.019531 64.042969 130.300781 65.183594 130.527344 C 66.324219 130.757812 67.472656 130.925781 68.628906 131.039062 C 69.789062 131.15625 70.949219 131.210938 72.113281 131.210938 L 285.238281 131.210938 L 285.238281 308.902344 C 285.238281 309.777344 285.195312 310.648438 285.109375 311.515625 C 285.023438 312.386719 284.894531 313.246094 284.726562 314.105469 C 284.554688 314.960938 284.34375 315.804688 284.089844 316.640625 C 283.835938 317.476562 283.542969 318.296875 283.210938 319.105469 C 282.875 319.910156 282.503906 320.699219 282.09375 321.46875 C 281.679688 322.238281 281.234375 322.984375 280.75 323.710938 C 280.261719 324.4375 279.746094 325.136719 279.191406 325.8125 C 278.636719 326.488281 278.050781 327.132812 277.433594 327.75 C 276.816406 328.367188 276.171875 328.953125 275.496094 329.507812 C 274.824219 330.0625 274.125 330.582031 273.398438 331.066406 C 272.671875 331.550781 271.925781 332 271.15625 332.410156 C 270.386719 332.820312 269.597656 333.195312 268.792969 333.527344 C 267.984375 333.863281 267.164062 334.15625 266.332031 334.410156 C 265.496094 334.664062 264.648438 334.875 263.792969 335.046875 C 262.9375 335.214844 262.078125 335.34375 261.207031 335.429688 C 260.339844 335.515625 259.46875 335.558594 258.597656 335.558594 L 116.511719 335.558594 C 115.640625 335.558594 114.769531 335.515625 113.902344 335.429688 C 113.035156 335.34375 112.171875 335.214844 111.316406 335.046875 C 110.460938 334.875 109.613281 334.664062 108.78125 334.410156 C 107.945312 334.15625 107.125 333.863281 106.320312 333.527344 C 105.511719 333.195312 104.722656 332.820312 103.953125 332.410156 C 103.183594 332 102.4375 331.550781 101.710938 331.066406 C 100.988281 330.582031 100.289062 330.0625 99.613281 329.507812 C 98.9375 328.953125 98.292969 328.367188 97.675781 327.75 C 97.058594 327.132812 96.472656 326.488281 95.917969 325.8125 C 95.367188 325.136719 94.847656 324.4375 94.363281 323.710938 C 93.878906 322.984375 93.429688 322.238281 93.019531 321.46875 C 92.605469 320.699219 92.234375 319.910156 91.902344 319.105469 C 91.566406 318.296875 91.273438 317.476562 91.019531 316.640625 C 90.765625 315.804688 90.554688 314.960938 90.382812 314.105469 C 90.214844 313.246094 90.085938 312.386719 90 311.515625 C 89.914062 310.648438 89.871094 309.777344 89.871094 308.902344 L 89.871094 166.75 L 160.914062 166.75 L 160.914062 220.058594 L 143.152344 220.058594 C 141.992188 220.058594 140.832031 220.113281 139.671875 220.230469 C 138.515625 220.34375 137.367188 220.515625 136.222656 220.742188 C 135.082031 220.96875 133.957031 221.25 132.84375 221.589844 C 131.730469 221.925781 130.636719 222.316406 129.5625 222.761719 C 128.484375 223.207031 127.4375 223.707031 126.410156 224.253906 C 125.382812 224.804688 124.386719 225.402344 123.417969 226.046875 C 122.453125 226.695312 121.519531 227.386719 120.621094 228.125 C 119.71875 228.863281 118.859375 229.644531 118.035156 230.46875 C 117.214844 231.289062 116.433594 232.152344 115.695312 233.050781 C 114.957031 233.949219 114.265625 234.882812 113.621094 235.851562 C 112.972656 236.820312 112.375 237.816406 111.828125 238.84375 C 111.277344 239.871094 110.78125 240.921875 110.335938 241.996094 C 109.890625 243.070312 109.5 244.167969 109.164062 245.28125 C 108.824219 246.394531 108.542969 247.523438 108.316406 248.664062 C 108.089844 249.804688 107.917969 250.953125 107.804688 252.113281 C 107.691406 253.269531 107.632812 254.433594 107.632812 255.597656 C 107.632812 256.761719 107.691406 257.921875 107.804688 259.078125 C 107.917969 260.238281 108.089844 261.386719 108.316406 262.53125 C 108.542969 263.671875 108.824219 264.800781 109.164062 265.914062 C 109.5 267.027344 109.890625 268.121094 110.335938 269.195312 C 110.78125 270.273438 111.277344 271.324219 111.828125 272.347656 C 112.375 273.375 112.972656 274.371094 113.621094 275.339844 C 114.265625 276.308594 114.957031 277.242188 115.695312 278.140625 C 116.433594 279.042969 117.214844 279.902344 118.035156 280.726562 C 118.859375 281.550781 119.71875 282.328125 120.621094 283.066406 C 121.519531 283.804688 122.453125 284.5 123.417969 285.144531 C 124.386719 285.792969 125.382812 286.390625 126.410156 286.9375 C 127.4375 287.488281 128.484375 287.984375 129.5625 288.429688 C 130.636719 288.875 131.730469 289.265625 132.84375 289.605469 C 133.957031 289.941406 135.082031 290.226562 136.222656 290.453125 C 137.367188 290.679688 138.515625 290.851562 139.671875 290.964844 C 140.832031 291.078125 141.992188 291.136719 143.152344 291.136719 C 144.316406 291.136719 145.476562 291.078125 146.636719 290.964844 C 147.792969 290.851562 148.941406 290.679688 150.082031 290.453125 C 151.226562 290.226562 152.351562 289.941406 153.464844 289.605469 C 154.578125 289.265625 155.671875 288.875 156.746094 288.429688 C 157.820312 287.984375 158.871094 287.488281 159.898438 286.9375 C 160.925781 286.390625 161.921875 285.792969 162.886719 285.144531 C 163.855469 284.5 164.789062 283.804688 165.6875 283.066406 C 166.585938 282.328125 167.449219 281.550781 168.269531 280.726562 C 169.09375 279.902344 169.875 279.042969 170.613281 278.140625 C 171.351562 277.242188 172.042969 276.308594 172.6875 275.339844 C 173.335938 274.371094 173.933594 273.375 174.480469 272.347656 C 175.027344 271.324219 175.527344 270.273438 175.972656 269.195312 C 176.417969 268.121094 176.808594 267.027344 177.144531 265.914062 C 177.484375 264.800781 177.765625 263.671875 177.992188 262.53125 C 178.21875 261.386719 178.390625 260.238281 178.503906 259.078125 C 178.617188 257.921875 178.675781 256.761719 178.675781 255.597656 L 178.675781 166.75 L 249.71875 166.75 L 249.71875 220.058594 L 231.957031 220.058594 C 230.777344 220.058594 229.597656 220.117188 228.425781 220.234375 C 227.25 220.351562 226.085938 220.527344 224.925781 220.757812 C 223.769531 220.992188 222.628906 221.28125 221.5 221.628906 C 220.371094 221.976562 219.265625 222.378906 218.175781 222.835938 C 217.089844 223.296875 216.027344 223.804688 214.988281 224.371094 C 213.953125 224.933594 212.945312 225.546875 211.96875 226.210938 C 210.992188 226.875 210.054688 227.585938 209.148438 228.34375 C 208.242188 229.101562 207.378906 229.902344 206.550781 230.746094 C 205.726562 231.59375 204.945312 232.476562 204.207031 233.398438 C 203.472656 234.320312 202.78125 235.277344 202.140625 236.265625 C 201.5 237.257812 200.90625 238.277344 200.367188 239.328125 C 199.828125 240.378906 199.339844 241.453125 198.90625 242.550781 C 198.472656 243.648438 198.097656 244.765625 197.773438 245.902344 C 197.453125 247.039062 197.1875 248.1875 196.980469 249.351562 C 196.773438 250.511719 196.621094 251.683594 196.53125 252.859375 C 196.441406 254.035156 196.410156 255.214844 196.4375 256.394531 C 196.441406 257.550781 196.503906 258.699219 196.625 259.84375 C 196.742188 260.992188 196.917969 262.128906 197.152344 263.257812 C 197.382812 264.390625 197.671875 265.503906 198.011719 266.605469 C 198.355469 267.707031 198.753906 268.785156 199.203125 269.847656 C 199.652344 270.910156 200.152344 271.945312 200.703125 272.957031 C 201.257812 273.96875 201.859375 274.953125 202.507812 275.90625 C 203.15625 276.855469 203.851562 277.773438 204.59375 278.660156 C 205.332031 279.542969 206.113281 280.386719 206.9375 281.191406 C 207.761719 282 208.625 282.761719 209.523438 283.484375 C 210.425781 284.203125 211.359375 284.878906 212.324219 285.503906 C 213.289062 286.132812 214.285156 286.710938 215.308594 287.242188 C 216.332031 287.769531 217.378906 288.25 218.453125 288.675781 C 219.523438 289.101562 220.613281 289.472656 221.71875 289.789062 C 222.828125 290.105469 223.949219 290.367188 225.082031 290.574219 C 226.214844 290.78125 227.355469 290.933594 228.503906 291.027344 C 229.652344 291.117188 230.804688 291.15625 231.957031 291.136719 C 233.121094 291.136719 234.28125 291.078125 235.4375 290.964844 C 236.597656 290.851562 237.746094 290.679688 238.886719 290.453125 C 240.027344 290.226562 241.15625 289.941406 242.269531 289.605469 C 243.382812 289.265625 244.476562 288.875 245.550781 288.429688 C 246.625 287.984375 247.675781 287.488281 248.699219 286.9375 C 249.726562 286.390625 250.722656 285.792969 251.691406 285.144531 C 252.660156 284.5 253.589844 283.804688 254.492188 283.066406 C 255.390625 282.328125 256.25 281.550781 257.074219 280.726562 C 257.894531 279.902344 258.675781 279.042969 259.414062 278.140625 C 260.152344 277.242188 260.84375 276.308594 261.492188 275.339844 C 262.136719 274.371094 262.734375 273.375 263.285156 272.347656 C 263.832031 271.324219 264.328125 270.273438 264.773438 269.195312 C 265.21875 268.121094 265.609375 267.027344 265.949219 265.914062 C 266.285156 264.800781 266.566406 263.671875 266.796875 262.53125 C 267.023438 261.386719 267.191406 260.238281 267.304688 259.078125 C 267.421875 257.921875 267.476562 256.761719 267.476562 255.597656 L 267.476562 148.980469 L 72.113281 148.980469 L 72.113281 308.902344 C 72.113281 310.359375 72.183594 311.808594 72.324219 313.257812 C 72.46875 314.707031 72.679688 316.144531 72.964844 317.570312 C 73.25 318.996094 73.601562 320.40625 74.023438 321.800781 C 74.445312 323.191406 74.933594 324.558594 75.492188 325.902344 C 76.046875 327.25 76.667969 328.5625 77.355469 329.84375 C 78.039062 331.128906 78.789062 332.375 79.59375 333.585938 C 80.402344 334.792969 81.269531 335.960938 82.191406 337.085938 C 83.113281 338.210938 84.089844 339.289062 85.117188 340.316406 C 86.144531 341.34375 87.222656 342.320312 88.34375 343.242188 C 89.46875 344.167969 90.636719 345.03125 91.84375 345.839844 C 93.054688 346.648438 94.300781 347.394531 95.582031 348.082031 C 96.867188 348.769531 98.179688 349.390625 99.523438 349.945312 C 100.867188 350.503906 102.234375 350.992188 103.625 351.414062 C 105.015625 351.835938 106.425781 352.191406 107.851562 352.472656 C 109.277344 352.757812 110.714844 352.96875 112.160156 353.113281 C 113.609375 353.253906 115.058594 353.328125 116.511719 353.328125 L 258.597656 353.328125 C 260.050781 353.328125 261.503906 353.253906 262.949219 353.113281 C 264.398438 352.96875 265.832031 352.757812 267.257812 352.472656 C 268.6875 352.191406 270.09375 351.835938 271.484375 351.414062 C 272.878906 350.992188 274.246094 350.503906 275.589844 349.945312 C 276.933594 349.390625 278.246094 348.769531 279.527344 348.082031 C 280.808594 347.394531 282.054688 346.648438 283.265625 345.839844 C 284.472656 345.03125 285.640625 344.167969 286.765625 343.242188 C 287.890625 342.320312 288.964844 341.34375 289.992188 340.316406 C 291.023438 339.289062 291.996094 338.210938 292.917969 337.085938 C 293.84375 335.960938 294.707031 334.792969 295.515625 333.585938 C 296.324219 332.375 297.070312 331.128906 297.753906 329.84375 C 298.441406 328.5625 299.0625 327.25 299.617188 325.902344 C 300.175781 324.558594 300.664062 323.191406 301.085938 321.800781 C 301.507812 320.40625 301.863281 318.996094 302.144531 317.570312 C 302.429688 316.144531 302.640625 314.707031 302.785156 313.257812 C 302.925781 311.808594 303 310.359375 303 308.902344 L 303 131.210938 C 304.160156 131.210938 305.324219 131.15625 306.480469 131.039062 C 307.636719 130.925781 308.789062 130.757812 309.929688 130.527344 C 311.070312 130.300781 312.195312 130.019531 313.308594 129.679688 C 314.421875 129.34375 315.515625 128.953125 316.589844 128.507812 C 317.667969 128.0625 318.71875 127.5625 319.742188 127.015625 C 320.769531 126.464844 321.765625 125.867188 322.734375 125.222656 C 323.699219 124.574219 324.632812 123.882812 325.53125 123.144531 C 326.433594 122.40625 327.292969 121.625 328.117188 120.804688 C 328.9375 119.980469 329.71875 119.117188 330.457031 118.21875 C 331.195312 117.320312 331.886719 116.386719 332.53125 115.417969 C 333.179688 114.449219 333.777344 113.453125 334.324219 112.425781 C 334.875 111.398438 335.371094 110.347656 335.816406 109.273438 C 336.261719 108.199219 336.652344 107.101562 336.988281 105.988281 C 337.328125 104.875 337.609375 103.75 337.835938 102.605469 C 338.0625 101.464844 338.234375 100.316406 338.347656 99.15625 C 338.460938 98 338.519531 96.835938 338.519531 95.671875 C 338.519531 94.507812 338.460938 93.347656 338.347656 92.191406 C 338.234375 91.03125 338.0625 89.882812 337.835938 88.738281 C 337.609375 87.597656 337.328125 86.472656 336.988281 85.355469 C 336.652344 84.242188 336.261719 83.148438 335.816406 82.074219 C 335.371094 80.996094 334.875 79.945312 334.324219 78.921875 C 333.777344 77.894531 333.179688 76.898438 332.53125 75.929688 C 331.886719 74.960938 331.195312 74.027344 330.457031 73.128906 C 329.71875 72.226562 328.9375 71.367188 328.117188 70.542969 C 327.292969 69.722656 326.433594 68.941406 325.53125 68.203125 C 324.632812 67.464844 323.699219 66.769531 322.734375 66.125 C 321.765625 65.476562 320.769531 64.878906 319.742188 64.332031 C 318.71875 63.78125 317.667969 63.285156 316.589844 62.839844 C 315.515625 62.394531 314.421875 62.003906 313.308594 61.664062 C 312.195312 61.328125 311.070312 61.042969 309.929688 60.816406 C 308.789062 60.589844 307.636719 60.421875 306.480469 60.304688 C 305.324219 60.191406 304.160156 60.136719 303 60.136719 Z M 160.914062 255.597656 C 160.914062 256.179688 160.886719 256.757812 160.828125 257.339844 C 160.773438 257.917969 160.6875 258.492188 160.574219 259.0625 C 160.460938 259.632812 160.320312 260.199219 160.148438 260.753906 C 159.980469 261.3125 159.785156 261.859375 159.5625 262.394531 C 159.339844 262.933594 159.089844 263.460938 158.816406 263.972656 C 158.542969 264.484375 158.246094 264.984375 157.921875 265.46875 C 157.597656 265.953125 157.253906 266.417969 156.882812 266.867188 C 156.515625 267.320312 156.125 267.75 155.710938 268.160156 C 155.300781 268.574219 154.871094 268.964844 154.421875 269.332031 C 153.972656 269.703125 153.503906 270.046875 153.019531 270.371094 C 152.539062 270.695312 152.039062 270.992188 151.527344 271.265625 C 151.011719 271.542969 150.488281 271.789062 149.949219 272.011719 C 149.414062 272.234375 148.867188 272.429688 148.308594 272.601562 C 147.753906 272.769531 147.191406 272.910156 146.617188 273.023438 C 146.046875 273.136719 145.472656 273.222656 144.894531 273.28125 C 144.316406 273.335938 143.734375 273.367188 143.152344 273.367188 C 142.574219 273.367188 141.992188 273.335938 141.414062 273.28125 C 140.835938 273.222656 140.257812 273.136719 139.6875 273.023438 C 139.117188 272.910156 138.554688 272.769531 138 272.601562 C 137.441406 272.429688 136.894531 272.234375 136.359375 272.011719 C 135.820312 271.789062 135.292969 271.542969 134.78125 271.265625 C 134.269531 270.992188 133.769531 270.695312 133.285156 270.371094 C 132.804688 270.046875 132.335938 269.703125 131.886719 269.332031 C 131.4375 268.964844 131.007812 268.574219 130.59375 268.160156 C 130.183594 267.75 129.792969 267.320312 129.425781 266.867188 C 129.054688 266.417969 128.710938 265.953125 128.386719 265.46875 C 128.0625 264.984375 127.765625 264.484375 127.492188 263.972656 C 127.214844 263.460938 126.96875 262.933594 126.746094 262.394531 C 126.523438 261.859375 126.328125 261.3125 126.160156 260.753906 C 125.988281 260.199219 125.847656 259.632812 125.734375 259.0625 C 125.621094 258.492188 125.535156 257.917969 125.480469 257.339844 C 125.421875 256.757812 125.394531 256.179688 125.394531 255.597656 C 125.394531 255.015625 125.421875 254.433594 125.480469 253.855469 C 125.535156 253.277344 125.621094 252.699219 125.734375 252.128906 C 125.847656 251.558594 125.988281 250.996094 126.160156 250.4375 C 126.328125 249.882812 126.523438 249.335938 126.746094 248.796875 C 126.96875 248.257812 127.214844 247.734375 127.492188 247.21875 C 127.765625 246.707031 128.0625 246.207031 128.386719 245.722656 C 128.710938 245.242188 129.054688 244.773438 129.425781 244.324219 C 129.792969 243.875 130.183594 243.441406 130.59375 243.03125 C 131.007812 242.621094 131.4375 242.230469 131.886719 241.859375 C 132.335938 241.492188 132.804688 241.144531 133.285156 240.820312 C 133.769531 240.5 134.269531 240.199219 134.78125 239.925781 C 135.292969 239.652344 135.820312 239.402344 136.359375 239.179688 C 136.894531 238.957031 137.441406 238.761719 138 238.59375 C 138.554688 238.421875 139.117188 238.28125 139.6875 238.167969 C 140.257812 238.054688 140.835938 237.96875 141.414062 237.914062 C 141.992188 237.855469 142.574219 237.828125 143.152344 237.828125 L 160.914062 237.828125 Z M 249.71875 255.597656 C 249.71875 256.195312 249.6875 256.792969 249.628906 257.390625 C 249.570312 257.984375 249.480469 258.578125 249.359375 259.164062 C 249.238281 259.75 249.089844 260.328125 248.914062 260.902344 C 248.734375 261.472656 248.527344 262.035156 248.292969 262.585938 C 248.058594 263.136719 247.796875 263.675781 247.507812 264.199219 C 247.21875 264.722656 246.902344 265.234375 246.5625 265.726562 C 246.222656 266.21875 245.855469 266.691406 245.46875 267.148438 C 245.078125 267.601562 244.667969 268.039062 244.234375 268.453125 C 243.804688 268.867188 243.351562 269.257812 242.878906 269.625 C 242.40625 269.996094 241.917969 270.339844 241.410156 270.65625 C 240.902344 270.976562 240.382812 271.269531 239.84375 271.535156 C 239.308594 271.800781 238.761719 272.039062 238.199219 272.25 C 237.640625 272.460938 237.070312 272.640625 236.492188 272.792969 C 235.910156 272.949219 235.328125 273.070312 234.734375 273.164062 C 234.144531 273.257812 233.550781 273.320312 232.953125 273.355469 C 232.351562 273.390625 231.753906 273.394531 231.15625 273.367188 C 230.585938 273.355469 230.019531 273.320312 229.453125 273.253906 C 228.886719 273.191406 228.324219 273.097656 227.769531 272.976562 C 227.210938 272.855469 226.660156 272.707031 226.117188 272.53125 C 225.578125 272.355469 225.042969 272.15625 224.523438 271.925781 C 224 271.699219 223.488281 271.445312 222.992188 271.167969 C 222.496094 270.886719 222.011719 270.585938 221.546875 270.257812 C 221.078125 269.933594 220.628906 269.582031 220.195312 269.210938 C 219.761719 268.839844 219.351562 268.449219 218.957031 268.035156 C 218.5625 267.625 218.191406 267.191406 217.839844 266.742188 C 217.488281 266.292969 217.160156 265.828125 216.855469 265.347656 C 216.550781 264.863281 216.269531 264.367188 216.015625 263.859375 C 215.761719 263.347656 215.53125 262.828125 215.328125 262.292969 C 215.121094 261.761719 214.945312 261.222656 214.796875 260.671875 C 214.644531 260.121094 214.523438 259.5625 214.429688 259 C 214.332031 258.441406 214.265625 257.875 214.226562 257.304688 C 214.1875 256.734375 214.179688 256.167969 214.195312 255.597656 C 214.195312 255.015625 214.222656 254.433594 214.28125 253.855469 C 214.339844 253.277344 214.425781 252.699219 214.539062 252.128906 C 214.652344 251.558594 214.792969 250.996094 214.960938 250.4375 C 215.128906 249.882812 215.324219 249.335938 215.546875 248.796875 C 215.769531 248.257812 216.019531 247.734375 216.292969 247.21875 C 216.566406 246.707031 216.867188 246.207031 217.1875 245.722656 C 217.511719 245.242188 217.859375 244.773438 218.226562 244.324219 C 218.597656 243.875 218.988281 243.441406 219.398438 243.03125 C 219.808594 242.621094 220.238281 242.230469 220.6875 241.859375 C 221.140625 241.492188 221.605469 241.144531 222.089844 240.820312 C 222.574219 240.5 223.070312 240.199219 223.585938 239.925781 C 224.097656 239.652344 224.621094 239.402344 225.160156 239.179688 C 225.699219 238.957031 226.246094 238.761719 226.800781 238.59375 C 227.359375 238.421875 227.921875 238.28125 228.492188 238.167969 C 229.0625 238.054688 229.636719 237.96875 230.214844 237.914062 C 230.792969 237.855469 231.375 237.828125 231.957031 237.828125 L 249.71875 237.828125 Z M 249.71875 255.597656 " fill-opacity="1" fill-rule="nonzero"/></g><path fill="#000000" d="M 134.273438 24.597656 L 152.035156 24.597656 L 152.035156 95.671875 L 134.273438 95.671875 Z M 134.273438 24.597656 " fill-opacity="1" fill-rule="nonzero"/><path fill="#000000" d="M 223.078125 24.597656 L 240.835938 24.597656 L 240.835938 95.671875 L 223.078125 95.671875 Z M 223.078125 24.597656 " fill-opacity="1" fill-rule="nonzero"/><g clip-path="url(#id2)"><path fill="#000000" d="M 178.675781 6.828125 L 196.4375 6.828125 L 196.4375 95.671875 L 178.675781 95.671875 Z M 178.675781 6.828125 " fill-opacity="1" fill-rule="nonzero"/></g></svg>